<svg id="visual" viewBox="0 0 960 540" width="960" height="540" xmlns="http://www.w3.org/2000/svg" xmlns:xlink="http://www.w3.org/1999/xlink" version="1.1"><rect x="0" y="0" width="960" height="540" fill="#091c2c"></rect><path d="M0 384L32 381C64 378 128 372 192 362.2C256 352.3 320 338.7 384 335.7C448 332.7 512 340.3 576 348.8C640 357.3 704 366.7 768 364.8C832 363 896 350 928 343.5L960 337L960 541L928 541C896 541 832 541 768 541C704 541 640 541 576 541C512 541 448 541 384 541C320 541 256 541 192 541C128 541 64 541 32 541L0 541Z" fill="#6ea7fd"></path><path d="M0 416L32 415.7C64 415.3 128 414.7 192 411.2C256 407.7 320 401.3 384 401.8C448 402.3 512 409.7 576 411.5C640 413.3 704 409.7 768 406.8C832 404 896 402 928 401L960 400L960 541L928 541C896 541 832 541 768 541C704 541 640 541 576 541C512 541 448 541 384 541C320 541 256 541 192 541C128 541 64 541 32 541L0 541Z" fill="#5194ff"></path><path d="M0 420L32 418.2C64 416.3 128 412.7 192 415.2C256 417.7 320 426.3 384 433.2C448 440 512 445 576 446.3C640 447.7 704 445.3 768 444.5C832 443.7 896 444.3 928 444.7L960 445L960 541L928 541C896 541 832 541 768 541C704 541 640 541 576 541C512 541 448 541 384 541C320 541 256 541 192 541C128 541 64 541 32 541L0 541Z" fill="#3281ff"></path><path d="M0 452L32 453.8C64 455.7 128 459.3 192 457.3C256 455.3 320 447.7 384 448.7C448 449.7 512 459.3 576 465.2C640 471 704 473 768 472.5C832 472 896 469 928 467.5L960 466L960 541L928 541C896 541 832 541 768 541C704 541 640 541 576 541C512 541 448 541 384 541C320 541 256 541 192 541C128 541 64 541 32 541L0 541Z" fill="#0f6cff"></path><path d="M0 512L32 508.5C64 505 128 498 192 494.7C256 491.3 320 491.7 384 488.8C448 486 512 480 576 477.5C640 475 704 476 768 476.8C832 477.7 896 478.3 928 478.7L960 479L960 541L928 541C896 541 832 541 768 541C704 541 640 541 576 541C512 541 448 541 384 541C320 541 256 541 192 541C128 541 64 541 32 541L0 541Z" fill="#0055ff"></path></svg>